<svg xmlns="http://www.w3.org/2000/svg" width="720" height="520" viewBox="0 0 720 520">
  <rect x="0" y="0" width="720" height="520" fill="#f7f8fa" />
  <text x="24" y="34" font-family="Arial" font-size="22" fill="#1f2933">Holdout Scene Preview</text>
  <text x="24" y="58" font-family="Arial" font-size="13" fill="#5c6670">Scene: Sort colored blocks holdout scene 1</text>
  <rect x="60" y="110" width="560" height="320" rx="4" fill="#ddd8cc" stroke="#9b9488" />
  <text x="68" y="128" font-family="Arial" font-size="12" fill="#5a5148">table/workspace</text>
  <circle cx="120" cy="260" r="18" fill="#222831" />
  <text x="92" y="300" font-family="Arial" font-size="12" fill="#222831">robot base</text>
    <rect x="257.2" y="242.5" width="28" height="28" rx="3" fill="#d7443e" stroke="#333" stroke-width="1.5" />
  <text x="249.2" y="286.5" font-family="Arial" font-size="11" fill="#222">red_block</text>
  <rect x="257.2" y="220.8" width="28" height="28" rx="3" fill="#3867d6" stroke="#333" stroke-width="1.5" />
  <text x="249.2" y="264.8" font-family="Arial" font-size="11" fill="#222">blue_block</text>
  <rect x="324.0" y="357.9" width="54" height="42" rx="3" fill="#d7443e" stroke="#333" stroke-width="1.5" />
  <text x="324.0" y="413.9" font-family="Arial" font-size="11" fill="#222">red_bin</text>
  <rect x="324.0" y="124.5" width="54" height="42" rx="3" fill="#3867d6" stroke="#333" stroke-width="1.5" />
  <text x="324.0" y="180.5" font-family="Arial" font-size="11" fill="#222">blue_bin</text>
  <rect x="279.9" y="275.6" width="28" height="28" rx="3" fill="#7f8c8d" stroke="#333" stroke-width="1.5" />
  <text x="271.9" y="319.6" font-family="Arial" font-size="11" fill="#222">distractor_0_0</text>
  <rect x="257.2" y="281.7" width="28" height="28" rx="3" fill="#7f8c8d" stroke="#333" stroke-width="1.5" />
  <text x="249.2" y="325.7" font-family="Arial" font-size="11" fill="#222">distractor_0_1</text>
</svg>
